{
    "asset" : {
        "generator" : "Khronos glTF Blender I/O v1.4.40",
        "version" : "2.0"
    },
    "scene" : 0,
    "scenes" : [
        {
            "name" : "Scene",
            "nodes" : [
                0,
                1,
                2,
                3,
                4,
                5,
                6,
                7,
                8
            ]
        }
    ],
    "nodes" : [
        {
            "name" : "Light",
            "rotation" : [
                0.16907575726509094,
                0.7558803558349609,
                -0.27217137813568115,
                0.570947527885437
            ],
            "translation" : [
                4.076245307922363,
                5.903861999511719,
                -1.0054539442062378
            ]
        },
        {
            "name" : "Camera",
            "rotation" : [
                0.483536034822464,
                0.33687159419059753,
                -0.20870360732078552,
                0.7804827094078064
            ],
            "translation" : [
                7.358891487121582,
                4.958309173583984,
                6.925790786743164
            ]
        },
        {
            "mesh" : 0,
            "name" : "Cylinder",
            "scale" : [
                1,
                0.9739245772361755,
                0.8920328617095947
            ],
            "translation" : [
                -0.012323090806603432,
                0.13700854778289795,
                0
            ]
        },
        {
            "mesh" : 1,
            "name" : "Cylinder.001",
            "rotation" : [
                0,
                0,
                -0.1537509560585022,
                0.9881096482276917
            ],
            "scale" : [
                0.4331929385662079,
                0.01872028410434723,
                0.22433075308799744
            ],
            "translation" : [
                -0.04690041393041611,
                1.4911277294158936,
                0.06257259845733643
            ]
        },
        {
            "mesh" : 2,
            "name" : "Torus",
            "scale" : [
                0.929290235042572,
                1,
                0.7487698793411255
            ],
            "translation" : [
                -0.03396499902009964,
                1.4083435535430908,
                0
            ]
        },
        {
            "mesh" : 3,
            "name" : "Cylinder.002",
            "scale" : [
                0.5446993708610535,
                0.027646543458104134,
                0.3810504674911499
            ],
            "translation" : [
                0.07659954577684402,
                1.3799574375152588,
                0.010923800989985466
            ]
        },
        {
            "mesh" : 4,
            "name" : "Cylinder.003",
            "scale" : [
                0.8536942005157471,
                -0.023596594110131264,
                -0.7721991539001465
            ],
            "translation" : [
                -0.008010279387235641,
                -1.4838550090789795,
                -0.007225152105093002
            ]
        },
        {
            "mesh" : 5,
            "name" : "Cylinder.004",
            "rotation" : [
                0,
                0,
                -0.33272799849510193,
                0.9430228471755981
            ],
            "scale" : [
                0.2940623164176941,
                -0.0355352982878685,
                0.2340943068265915
            ],
            "translation" : [
                0.3393145203590393,
                1.1974046230316162,
                0.06212502717971802
            ]
        },
        {
            "mesh" : 6,
            "name" : "Cylinder.005",
            "scale" : [
                0.8237124681472778,
                0.051536764949560165,
                0.6569459438323975
            ],
            "translation" : [
                -0.016824323683977127,
                1.3501253128051758,
                0.005275346804410219
            ]
        }
    ],
    "materials" : [
        {
            "doubleSided" : true,
            "name" : "Material.003",
            "pbrMetallicRoughness" : {
                "baseColorTexture" : {
                    "index" : 0,
                    "texCoord" : 0
                },
                "metallicFactor" : 0.9386363625526428,
                "roughnessFactor" : 0.5
            }
        },
        {
            "doubleSided" : true,
            "name" : "Material.001",
            "pbrMetallicRoughness" : {
                "metallicFactor" : 0.9659090638160706,
                "roughnessFactor" : 0.5
            }
        },
        {
            "doubleSided" : true,
            "name" : "Material.002",
            "pbrMetallicRoughness" : {
                "baseColorFactor" : [
                    0.800000011920929,
                    0.800000011920929,
                    0.800000011920929,
                    1
                ],
                "metallicFactor" : 0.6090909242630005,
                "roughnessFactor" : 0.5
            }
        }
    ],
    "meshes" : [
        {
            "name" : "Cylinder",
            "primitives" : [
                {
                    "attributes" : {
                        "POSITION" : 0,
                        "NORMAL" : 1,
                        "TEXCOORD_0" : 2,
                        "COLOR_0" : 3
                    },
                    "indices" : 4,
                    "material" : 0
                }
            ]
        },
        {
            "name" : "Cylinder.001",
            "primitives" : [
                {
                    "attributes" : {
                        "POSITION" : 5,
                        "NORMAL" : 6,
                        "TEXCOORD_0" : 7
                    },
                    "indices" : 8,
                    "material" : 1
                }
            ]
        },
        {
            "name" : "Torus",
            "primitives" : [
                {
                    "attributes" : {
                        "POSITION" : 9,
                        "NORMAL" : 10,
                        "TEXCOORD_0" : 11,
                        "COLOR_0" : 12
                    },
                    "indices" : 13,
                    "material" : 1
                }
            ]
        },
        {
            "name" : "Cylinder.003",
            "primitives" : [
                {
                    "attributes" : {
                        "POSITION" : 14,
                        "NORMAL" : 15,
                        "TEXCOORD_0" : 16
                    },
                    "indices" : 17,
                    "material" : 2
                }
            ]
        },
        {
            "name" : "Cylinder.004",
            "primitives" : [
                {
                    "attributes" : {
                        "POSITION" : 18,
                        "NORMAL" : 19,
                        "TEXCOORD_0" : 20
                    },
                    "indices" : 21,
                    "material" : 1
                }
            ]
        },
        {
            "name" : "Cylinder.005",
            "primitives" : [
                {
                    "attributes" : {
                        "POSITION" : 22,
                        "NORMAL" : 23,
                        "TEXCOORD_0" : 24
                    },
                    "indices" : 25
                }
            ]
        },
        {
            "name" : "Cylinder.002",
            "primitives" : [
                {
                    "attributes" : {
                        "POSITION" : 26,
                        "NORMAL" : 27,
                        "TEXCOORD_0" : 28
                    },
                    "indices" : 25,
                    "material" : 1
                }
            ]
        }
    ],
    "textures" : [
        {
            "sampler" : 0,
            "source" : 0
        }
    ],
    "images" : [
        {
            "bufferView" : 5,
            "mimeType" : "image/png",
            "name" : "logo_jderobot_pantalla_carga"
        }
    ],
    "accessors" : [
        {
            "bufferView" : 0,
            "componentType" : 5126,
            "count" : 7902,
            "max" : [
                1,
                1.2693639993667603,
                0.9999999403953552
            ],
            "min" : [
                -1,
                -1.6374256610870361,
                -1
            ],
            "type" : "VEC3"
        },
        {
            "bufferView" : 1,
            "componentType" : 5126,
            "count" : 7902,
            "type" : "VEC3"
        },
        {
            "bufferView" : 2,
            "componentType" : 5126,
            "count" : 7902,
            "type" : "VEC2"
        },
        {
            "bufferView" : 3,
            "componentType" : 5123,
            "count" : 7902,
            "normalized" : true,
            "type" : "VEC4"
        },
        {
            "bufferView" : 4,
            "componentType" : 5123,
            "count" : 14562,
            "type" : "SCALAR"
        },
        {
            "bufferView" : 6,
            "componentType" : 5126,
            "count" : 792,
            "max" : [
                0.9930914044380188,
                0.6876324415206909,
                0.8630492091178894
            ],
            "min" : [
                -1.021741271018982,
                -2.071256637573242,
                -0.9449851512908936
            ],
            "type" : "VEC3"
        },
        {
            "bufferView" : 7,
            "componentType" : 5126,
            "count" : 792,
            "type" : "VEC3"
        },
        {
            "bufferView" : 8,
            "componentType" : 5126,
            "count" : 792,
            "type" : "VEC2"
        },
        {
            "bufferView" : 9,
            "componentType" : 5123,
            "count" : 1428,
            "type" : "SCALAR"
        },
        {
            "bufferView" : 10,
            "componentType" : 5126,
            "count" : 1092,
            "max" : [
                0.9300000071525574,
                0.039932332932949066,
                0.926823616027832
            ],
            "min" : [
                -0.9300000071525574,
                -0.039932332932949066,
                -0.9268235564231873
            ],
            "type" : "VEC3"
        },
        {
            "bufferView" : 11,
            "componentType" : 5126,
            "count" : 1092,
            "type" : "VEC3"
        },
        {
            "bufferView" : 12,
            "componentType" : 5126,
            "count" : 1092,
            "type" : "VEC2"
        },
        {
            "bufferView" : 13,
            "componentType" : 5123,
            "count" : 1092,
            "normalized" : true,
            "type" : "VEC4"
        },
        {
            "bufferView" : 14,
            "componentType" : 5123,
            "count" : 6156,
            "type" : "SCALAR"
        },
        {
            "bufferView" : 15,
            "componentType" : 5126,
            "count" : 283,
            "max" : [
                0.9849094748497009,
                1.0471503734588623,
                1.1826778650283813
            ],
            "min" : [
                -0.9860267639160156,
                -1.0493768453598022,
                -1.1825973987579346
            ],
            "type" : "VEC3"
        },
        {
            "bufferView" : 16,
            "componentType" : 5126,
            "count" : 283,
            "type" : "VEC3"
        },
        {
            "bufferView" : 17,
            "componentType" : 5126,
            "count" : 283,
            "type" : "VEC2"
        },
        {
            "bufferView" : 18,
            "componentType" : 5123,
            "count" : 696,
            "type" : "SCALAR"
        },
        {
            "bufferView" : 19,
            "componentType" : 5126,
            "count" : 192,
            "max" : [
                1.0031920671463013,
                1.0005913972854614,
                1.0000590085983276
            ],
            "min" : [
                -0.9995129704475403,
                -0.9995481967926025,
                -0.9999869465827942
            ],
            "type" : "VEC3"
        },
        {
            "bufferView" : 20,
            "componentType" : 5126,
            "count" : 192,
            "type" : "VEC3"
        },
        {
            "bufferView" : 21,
            "componentType" : 5126,
            "count" : 192,
            "type" : "VEC2"
        },
        {
            "bufferView" : 22,
            "componentType" : 5123,
            "count" : 372,
            "type" : "SCALAR"
        },
        {
            "bufferView" : 23,
            "componentType" : 5126,
            "count" : 192,
            "max" : [
                1,
                1,
                1
            ],
            "min" : [
                -1,
                -1,
                -1
            ],
            "type" : "VEC3"
        },
        {
            "bufferView" : 24,
            "componentType" : 5126,
            "count" : 192,
            "type" : "VEC3"
        },
        {
            "bufferView" : 25,
            "componentType" : 5126,
            "count" : 192,
            "type" : "VEC2"
        },
        {
            "bufferView" : 26,
            "componentType" : 5123,
            "count" : 372,
            "type" : "SCALAR"
        },
        {
            "bufferView" : 27,
            "componentType" : 5126,
            "count" : 192,
            "max" : [
                1,
                1,
                1
            ],
            "min" : [
                -1,
                -1,
                -1
            ],
            "type" : "VEC3"
        },
        {
            "bufferView" : 28,
            "componentType" : 5126,
            "count" : 192,
            "type" : "VEC3"
        },
        {
            "bufferView" : 29,
            "componentType" : 5126,
            "count" : 192,
            "type" : "VEC2"
        }
    ],
    "bufferViews" : [
        {
            "buffer" : 0,
            "byteLength" : 94824,
            "byteOffset" : 0
        },
        {
            "buffer" : 0,
            "byteLength" : 94824,
            "byteOffset" : 94824
        },
        {
            "buffer" : 0,
            "byteLength" : 63216,
            "byteOffset" : 189648
        },
        {
            "buffer" : 0,
            "byteLength" : 63216,
            "byteOffset" : 252864
        },
        {
            "buffer" : 0,
            "byteLength" : 29124,
            "byteOffset" : 316080
        },
        {
            "buffer" : 0,
            "byteLength" : 72620,
            "byteOffset" : 345204
        },
        {
            "buffer" : 0,
            "byteLength" : 9504,
            "byteOffset" : 417824
        },
        {
            "buffer" : 0,
            "byteLength" : 9504,
            "byteOffset" : 427328
        },
        {
            "buffer" : 0,
            "byteLength" : 6336,
            "byteOffset" : 436832
        },
        {
            "buffer" : 0,
            "byteLength" : 2856,
            "byteOffset" : 443168
        },
        {
            "buffer" : 0,
            "byteLength" : 13104,
            "byteOffset" : 446024
        },
        {
            "buffer" : 0,
            "byteLength" : 13104,
            "byteOffset" : 459128
        },
        {
            "buffer" : 0,
            "byteLength" : 8736,
            "byteOffset" : 472232
        },
        {
            "buffer" : 0,
            "byteLength" : 8736,
            "byteOffset" : 480968
        },
        {
            "buffer" : 0,
            "byteLength" : 12312,
            "byteOffset" : 489704
        },
        {
            "buffer" : 0,
            "byteLength" : 3396,
            "byteOffset" : 502016
        },
        {
            "buffer" : 0,
            "byteLength" : 3396,
            "byteOffset" : 505412
        },
        {
            "buffer" : 0,
            "byteLength" : 2264,
            "byteOffset" : 508808
        },
        {
            "buffer" : 0,
            "byteLength" : 1392,
            "byteOffset" : 511072
        },
        {
            "buffer" : 0,
            "byteLength" : 2304,
            "byteOffset" : 512464
        },
        {
            "buffer" : 0,
            "byteLength" : 2304,
            "byteOffset" : 514768
        },
        {
            "buffer" : 0,
            "byteLength" : 1536,
            "byteOffset" : 517072
        },
        {
            "buffer" : 0,
            "byteLength" : 744,
            "byteOffset" : 518608
        },
        {
            "buffer" : 0,
            "byteLength" : 2304,
            "byteOffset" : 519352
        },
        {
            "buffer" : 0,
            "byteLength" : 2304,
            "byteOffset" : 521656
        },
        {
            "buffer" : 0,
            "byteLength" : 1536,
            "byteOffset" : 523960
        },
        {
            "buffer" : 0,
            "byteLength" : 744,
            "byteOffset" : 525496
        },
        {
            "buffer" : 0,
            "byteLength" : 2304,
            "byteOffset" : 526240
        },
        {
            "buffer" : 0,
            "byteLength" : 2304,
            "byteOffset" : 528544
        },
        {
            "buffer" : 0,
            "byteLength" : 1536,
            "byteOffset" : 530848
        }
    ],
    "samplers" : [
        {
            "magFilter" : 9729,
            "minFilter" : 9986
        }
    ],
    "buffers" : [
        {
            "byteLength" : 532384,
            "uri" : "data:application/octet-stream;base64,"
        }
    ]
}
