{
    "asset" : {
        "generator" : "Khronos glTF Blender I/O v1.4.40",
        "version" : "2.0"
    },
    "scene" : 0,
    "scenes" : [
        {
            "name" : "Scene",
            "nodes" : [
                0,
                1,
                2,
                3,
                4,
                5,
                6
            ]
        }
    ],
    "nodes" : [
        {
            "name" : "Light",
            "rotation" : [
                0.16907575726509094,
                0.7558803558349609,
                -0.27217137813568115,
                0.570947527885437
            ],
            "translation" : [
                4.076245307922363,
                5.903861999511719,
                -1.0054539442062378
            ]
        },
        {
            "name" : "Camera",
            "rotation" : [
                0.483536034822464,
                0.33687159419059753,
                -0.20870360732078552,
                0.7804827094078064
            ],
            "translation" : [
                7.358891487121582,
                4.958309173583984,
                6.925790786743164
            ]
        },
        {
            "mesh" : 0,
            "name" : "Cylinder",
            "rotation" : [
                0,
                -0.9626696705818176,
                0,
                0.27067893743515015
            ],
            "translation" : [
                -0.14196042716503143,
                0.21712777018547058,
                -0.5758805871009827
            ]
        },
        {
            "mesh" : 1,
            "name" : "Cylinder.003",
            "rotation" : [
                0.7038968205451965,
                -0.6435422897338867,
                -0.07254078984260559,
                0.2917543053627014
            ],
            "scale" : [
                0.47234365344047546,
                1.1122469902038574,
                -0.4279722571372986
            ],
            "translation" : [
                0.13886046409606934,
                0.06987489014863968,
                -1.0233972072601318
            ]
        },
        {
            "mesh" : 2,
            "name" : "Cylinder.004",
            "rotation" : [
                0.7038968205451965,
                -0.6435422897338867,
                -0.07254078984260559,
                0.2917543053627014
            ],
            "scale" : [
                0.47234365344047546,
                1.1122469902038574,
                -0.4279722571372986
            ],
            "translation" : [
                -0.6295692920684814,
                0.053148843348026276,
                -0.5937144756317139
            ]
        },
        {
            "mesh" : 3,
            "name" : "Cylinder.005",
            "rotation" : [
                0.5522801876068115,
                -0.663159191608429,
                0.44240185618400574,
                -0.24389974772930145
            ],
            "scale" : [
                0.46373116970062256,
                0.4463018476963043,
                -0.35223227739334106
            ],
            "translation" : [
                0.1072394847869873,
                0.1039126068353653,
                -0.1806386560201645
            ]
        },
        {
            "mesh" : 4,
            "name" : "Cube",
            "rotation" : [
                0,
                -0.9626696705818176,
                0,
                0.27067893743515015
            ],
            "scale" : [
                1.5112460851669312,
                0.13690483570098877,
                0.323075532913208
            ],
            "translation" : [
                -0.07695528864860535,
                0.07060541957616806,
                -0.4667988717556
            ]
        }
    ],
    "materials" : [
        {
            "doubleSided" : true,
            "name" : "Jderobot.006",
            "pbrMetallicRoughness" : {
                "baseColorTexture" : {
                    "index" : 0,
                    "texCoord" : 0
                },
                "metallicFactor" : 0,
                "roughnessFactor" : 0.5
            }
        },
        {
            "doubleSided" : true,
            "name" : "Material.004",
            "pbrMetallicRoughness" : {
                "baseColorFactor" : [
                    0.800000011920929,
                    0.800000011920929,
                    0.800000011920929,
                    1
                ],
                "metallicFactor" : 0,
                "roughnessFactor" : 0.5
            }
        },
        {
            "doubleSided" : true,
            "name" : "Material.001",
            "pbrMetallicRoughness" : {
                "baseColorFactor" : [
                    0,
                    0,
                    0,
                    1
                ],
                "metallicFactor" : 0,
                "roughnessFactor" : 0.5
            }
        }
    ],
    "meshes" : [
        {
            "name" : "Cylinder",
            "primitives" : [
                {
                    "attributes" : {
                        "POSITION" : 0,
                        "NORMAL" : 1,
                        "TEXCOORD_0" : 2
                    },
                    "indices" : 3,
                    "material" : 0
                }
            ]
        },
        {
            "name" : "Cylinder.007",
            "primitives" : [
                {
                    "attributes" : {
                        "POSITION" : 4,
                        "NORMAL" : 5,
                        "TEXCOORD_0" : 6
                    },
                    "indices" : 7
                }
            ]
        },
        {
            "name" : "Cylinder.008",
            "primitives" : [
                {
                    "attributes" : {
                        "POSITION" : 8,
                        "NORMAL" : 9,
                        "TEXCOORD_0" : 10
                    },
                    "indices" : 7,
                    "material" : 1
                }
            ]
        },
        {
            "name" : "Cylinder.009",
            "primitives" : [
                {
                    "attributes" : {
                        "POSITION" : 11,
                        "NORMAL" : 12,
                        "TEXCOORD_0" : 13
                    },
                    "indices" : 7
                }
            ]
        },
        {
            "name" : "Cube.003",
            "primitives" : [
                {
                    "attributes" : {
                        "POSITION" : 14,
                        "NORMAL" : 15
                    },
                    "indices" : 16,
                    "material" : 2
                }
            ]
        }
    ],
    "textures" : [
        {
            "sampler" : 0,
            "source" : 0
        }
    ],
    "images" : [
        {
            "bufferView" : 4,
            "mimeType" : "image/png",
            "name" : "logo"
        }
    ],
    "accessors" : [
        {
            "bufferView" : 0,
            "componentType" : 5126,
            "count" : 544,
            "max" : [
                0.9995259642601013,
                0.2295626997947693,
                0.9721145033836365
            ],
            "min" : [
                -0.9995259642601013,
                -0.15714524686336517,
                -0.9995259642601013
            ],
            "type" : "VEC3"
        },
        {
            "bufferView" : 1,
            "componentType" : 5126,
            "count" : 544,
            "type" : "VEC3"
        },
        {
            "bufferView" : 2,
            "componentType" : 5126,
            "count" : 544,
            "type" : "VEC2"
        },
        {
            "bufferView" : 3,
            "componentType" : 5123,
            "count" : 1524,
            "type" : "SCALAR"
        },
        {
            "bufferView" : 5,
            "componentType" : 5126,
            "count" : 264,
            "max" : [
                0.27000001072883606,
                0.06549999862909317,
                0.27000001072883606
            ],
            "min" : [
                -0.27000001072883606,
                -0.06549999862909317,
                -0.27000001072883606
            ],
            "type" : "VEC3"
        },
        {
            "bufferView" : 6,
            "componentType" : 5126,
            "count" : 264,
            "type" : "VEC3"
        },
        {
            "bufferView" : 7,
            "componentType" : 5126,
            "count" : 264,
            "type" : "VEC2"
        },
        {
            "bufferView" : 8,
            "componentType" : 5123,
            "count" : 516,
            "type" : "SCALAR"
        },
        {
            "bufferView" : 9,
            "componentType" : 5126,
            "count" : 264,
            "max" : [
                0.27000001072883606,
                0.06549999862909317,
                0.27000001072883606
            ],
            "min" : [
                -0.27000001072883606,
                -0.06549999862909317,
                -0.27000001072883606
            ],
            "type" : "VEC3"
        },
        {
            "bufferView" : 10,
            "componentType" : 5126,
            "count" : 264,
            "type" : "VEC3"
        },
        {
            "bufferView" : 11,
            "componentType" : 5126,
            "count" : 264,
            "type" : "VEC2"
        },
        {
            "bufferView" : 12,
            "componentType" : 5126,
            "count" : 264,
            "max" : [
                0.27000001072883606,
                0.06549999862909317,
                0.27000001072883606
            ],
            "min" : [
                -0.27000001072883606,
                -0.06549999862909317,
                -0.27000001072883606
            ],
            "type" : "VEC3"
        },
        {
            "bufferView" : 13,
            "componentType" : 5126,
            "count" : 264,
            "type" : "VEC3"
        },
        {
            "bufferView" : 14,
            "componentType" : 5126,
            "count" : 264,
            "type" : "VEC2"
        },
        {
            "bufferView" : 15,
            "componentType" : 5126,
            "count" : 24,
            "max" : [
                0.2449999898672104,
                0.2449999898672104,
                0.2449999898672104
            ],
            "min" : [
                -0.2449999898672104,
                -0.2449999898672104,
                -0.2449999898672104
            ],
            "type" : "VEC3"
        },
        {
            "bufferView" : 16,
            "componentType" : 5126,
            "count" : 24,
            "type" : "VEC3"
        },
        {
            "bufferView" : 17,
            "componentType" : 5123,
            "count" : 36,
            "type" : "SCALAR"
        }
    ],
    "bufferViews" : [
        {
            "buffer" : 0,
            "byteLength" : 6528,
            "byteOffset" : 0
        },
        {
            "buffer" : 0,
            "byteLength" : 6528,
            "byteOffset" : 6528
        },
        {
            "buffer" : 0,
            "byteLength" : 4352,
            "byteOffset" : 13056
        },
        {
            "buffer" : 0,
            "byteLength" : 3048,
            "byteOffset" : 17408
        },
        {
            "buffer" : 0,
            "byteLength" : 42930,
            "byteOffset" : 20456
        },
        {
            "buffer" : 0,
            "byteLength" : 3168,
            "byteOffset" : 63388
        },
        {
            "buffer" : 0,
            "byteLength" : 3168,
            "byteOffset" : 66556
        },
        {
            "buffer" : 0,
            "byteLength" : 2112,
            "byteOffset" : 69724
        },
        {
            "buffer" : 0,
            "byteLength" : 1032,
            "byteOffset" : 71836
        },
        {
            "buffer" : 0,
            "byteLength" : 3168,
            "byteOffset" : 72868
        },
        {
            "buffer" : 0,
            "byteLength" : 3168,
            "byteOffset" : 76036
        },
        {
            "buffer" : 0,
            "byteLength" : 2112,
            "byteOffset" : 79204
        },
        {
            "buffer" : 0,
            "byteLength" : 3168,
            "byteOffset" : 81316
        },
        {
            "buffer" : 0,
            "byteLength" : 3168,
            "byteOffset" : 84484
        },
        {
            "buffer" : 0,
            "byteLength" : 2112,
            "byteOffset" : 87652
        },
        {
            "buffer" : 0,
            "byteLength" : 288,
            "byteOffset" : 89764
        },
        {
            "buffer" : 0,
            "byteLength" : 288,
            "byteOffset" : 90052
        },
        {
            "buffer" : 0,
            "byteLength" : 72,
            "byteOffset" : 90340
        }
    ],
    "samplers" : [
        {
            "magFilter" : 9729,
            "minFilter" : 9986
        }
    ],
    "buffers" : [
        {
            "byteLength" : 90412,
            "uri" : "data:application/octet-stream;base64,"
        }
    ]
}
