{
    "asset" : {
        "generator" : "Khronos glTF Blender I/O v0.9.36",
        "version" : "2.0"
    },
    "scene" : 0,
    "scenes" : [
        {
            "name" : "Scene",
            "nodes" : [
                0,
                1,
                3,
                4,
                5,
                6,
                7,
                8
            ]
        }
    ],
    "nodes" : [
        {
            "name" : "Light",
            "rotation" : [
                -0.5709477066993713,
                0.2721712291240692,
                0.7558802962303162,
                0.16907566785812378
            ],
            "translation" : [
                4.076245307922363,
                5.903862953186035,
                -1.0054525136947632
            ]
        },
        {
            "name" : "Camera",
            "rotation" : [
                -0.7804825901985168,
                0.20870345830917358,
                0.33687177300453186,
                0.4835361838340759
            ],
            "translation" : [
                -4.885080337524414,
                4.958308219909668,
                7.293327331542969
            ]
        },
        {
            "name" : "skp_camera_Last_Saved_SketchUp_View",
            "rotation" : [
                0.5616979002952576,
                0.22305041551589966,
                -0.1605493575334549,
                0.7803639769554138
            ],
            "translation" : [
                218.8636932373047,
                109.03409576416016,
                151.84849548339844
            ]
        },
        {
            "children" : [
                2
            ],
            "mesh" : 0,
            "name" : "SketchUp",
            "scale" : [
                0.02539999969303608,
                0.02539999969303608,
                0.02539999969303608
            ]
        },
        {
            "mesh" : 1,
            "name" : "SketchUp.001",
            "scale" : [
                0.02539999969303608,
                0.02539999969303608,
                0.02539999969303608
            ]
        },
        {
            "mesh" : 2,
            "name" : "SketchUp.002",
            "scale" : [
                0.02539999969303608,
                0.02539999969303608,
                0.02539999969303608
            ]
        },
        {
            "mesh" : 3,
            "name" : "SketchUp.003",
            "scale" : [
                0.02539999969303608,
                0.02539999969303608,
                0.02539999969303608
            ]
        },
        {
            "mesh" : 4,
            "name" : "SketchUp.004",
            "scale" : [
                0.02539999969303608,
                0.02539999969303608,
                0.02539999969303608
            ]
        },
        {
            "mesh" : 5,
            "name" : "SketchUp.005",
            "scale" : [
                0.02539999969303608,
                0.02539999969303608,
                0.02539999969303608
            ]
        }
    ],
    "materials" : [
        {
            "doubleSided" : true,
            "name" : "material",
            "pbrMetallicRoughness" : {
                "baseColorFactor" : [
                    0.8901960849761963,
                    0.882352888584137,
                    0.8705881834030151,
                    1
                ],
                "metallicFactor" : 0,
                "roughnessFactor" : 0.5
            }
        },
        {
            "doubleSided" : true,
            "name" : "material_30",
            "pbrMetallicRoughness" : {
                "baseColorTexture" : {
                    "index" : 0,
                    "texCoord" : 0
                },
                "metallicFactor" : 0,
                "roughnessFactor" : 0.5
            }
        },
        {
            "doubleSided" : true,
            "name" : "Sketchy_Lines_Wavy_45_A",
            "pbrMetallicRoughness" : {
                "baseColorTexture" : {
                    "index" : 1,
                    "texCoord" : 0
                },
                "metallicFactor" : 0,
                "roughnessFactor" : 0.5
            }
        }
    ],
    "meshes" : [
        {
            "name" : "ID3",
            "primitives" : [
                {
                    "attributes" : {
                        "POSITION" : 0,
                        "NORMAL" : 1
                    },
                    "indices" : 2,
                    "material" : 0
                }
            ]
        },
        {
            "name" : "ID11",
            "primitives" : [
                {
                    "attributes" : {
                        "POSITION" : 3,
                        "NORMAL" : 4,
                        "TEXCOORD_0" : 5
                    },
                    "indices" : 6,
                    "material" : 1
                }
            ]
        },
        {
            "name" : "ID24",
            "primitives" : [
                {
                    "attributes" : {
                        "POSITION" : 7,
                        "NORMAL" : 8
                    },
                    "indices" : 9,
                    "material" : 0
                }
            ]
        },
        {
            "name" : "ID30",
            "primitives" : [
                {
                    "attributes" : {
                        "POSITION" : 10,
                        "NORMAL" : 11
                    },
                    "indices" : 12,
                    "material" : 0
                }
            ]
        },
        {
            "name" : "ID36",
            "primitives" : [
                {
                    "attributes" : {
                        "POSITION" : 13,
                        "NORMAL" : 14,
                        "TEXCOORD_0" : 15
                    },
                    "indices" : 16,
                    "material" : 2
                }
            ]
        },
        {
            "name" : "ID49",
            "primitives" : [
                {
                    "attributes" : {
                        "POSITION" : 17,
                        "NORMAL" : 18,
                        "TEXCOORD_0" : 19
                    },
                    "indices" : 16,
                    "material" : 2
                }
            ]
        }
    ],
    "textures" : [
        {
            "source" : 0
        },
        {
            "source" : 1
        }
    ],
    "images" : [
        {
            "bufferView" : 7,
            "mimeType" : "image/png",
            "name" : "material_30"
        },
        {
            "bufferView" : 18,
            "mimeType" : "image/jpeg",
            "name" : "Sketchy_Lines_Wavy_45_A"
        }
    ],
    "accessors" : [
        {
            "bufferView" : 0,
            "componentType" : 5126,
            "count" : 163,
            "max" : [
                171.25979614257812,
                99.21260070800781,
                0
            ],
            "min" : [
                168.11019897460938,
                0,
                -292.5196838378906
            ],
            "type" : "VEC3"
        },
        {
            "bufferView" : 1,
            "componentType" : 5126,
            "count" : 163,
            "type" : "VEC3"
        },
        {
            "bufferView" : 2,
            "componentType" : 5123,
            "count" : 426,
            "type" : "SCALAR"
        },
        {
            "bufferView" : 3,
            "componentType" : 5126,
            "count" : 288,
            "max" : [
                169.6850128173828,
                97.6377944946289,
                -1.5748029947280884
            ],
            "min" : [
                75.98424530029297,
                0,
                -290.94488525390625
            ],
            "type" : "VEC3"
        },
        {
            "bufferView" : 4,
            "componentType" : 5126,
            "count" : 288,
            "type" : "VEC3"
        },
        {
            "bufferView" : 5,
            "componentType" : 5126,
            "count" : 288,
            "type" : "VEC2"
        },
        {
            "bufferView" : 6,
            "componentType" : 5123,
            "count" : 348,
            "type" : "SCALAR"
        },
        {
            "bufferView" : 8,
            "componentType" : 5126,
            "count" : 127,
            "max" : [
                0.7874016165733337,
                97.24408721923828,
                -1.1811020374298096
            ],
            "min" : [
                0,
                0,
                -1.9685039520263672
            ],
            "type" : "VEC3"
        },
        {
            "bufferView" : 9,
            "componentType" : 5126,
            "count" : 127,
            "type" : "VEC3"
        },
        {
            "bufferView" : 10,
            "componentType" : 5123,
            "count" : 276,
            "type" : "SCALAR"
        },
        {
            "bufferView" : 11,
            "componentType" : 5126,
            "count" : 120,
            "max" : [
                0.7874016165733337,
                97.24408721923828,
                -290.5511779785156
            ],
            "min" : [
                0,
                0,
                -291.3385925292969
            ],
            "type" : "VEC3"
        },
        {
            "bufferView" : 12,
            "componentType" : 5126,
            "count" : 120,
            "type" : "VEC3"
        },
        {
            "bufferView" : 13,
            "componentType" : 5123,
            "count" : 276,
            "type" : "SCALAR"
        },
        {
            "bufferView" : 14,
            "componentType" : 5126,
            "count" : 8,
            "max" : [
                75.98424530029297,
                97.6377944946289,
                -1.5748029947280884
            ],
            "min" : [
                0.39370080828666687,
                97.24408721923828,
                -1.5748029947280884
            ],
            "type" : "VEC3"
        },
        {
            "bufferView" : 15,
            "componentType" : 5126,
            "count" : 8,
            "type" : "VEC3"
        },
        {
            "bufferView" : 16,
            "componentType" : 5126,
            "count" : 8,
            "type" : "VEC2"
        },
        {
            "bufferView" : 17,
            "componentType" : 5123,
            "count" : 9,
            "type" : "SCALAR"
        },
        {
            "bufferView" : 19,
            "componentType" : 5126,
            "count" : 8,
            "max" : [
                75.98424530029297,
                97.6377944946289,
                -290.94488525390625
            ],
            "min" : [
                0.39370080828666687,
                97.24408721923828,
                -290.94488525390625
            ],
            "type" : "VEC3"
        },
        {
            "bufferView" : 20,
            "componentType" : 5126,
            "count" : 8,
            "type" : "VEC3"
        },
        {
            "bufferView" : 21,
            "componentType" : 5126,
            "count" : 8,
            "type" : "VEC2"
        }
    ],
    "bufferViews" : [
        {
            "buffer" : 0,
            "byteLength" : 1956,
            "byteOffset" : 0
        },
        {
            "buffer" : 0,
            "byteLength" : 1956,
            "byteOffset" : 1956
        },
        {
            "buffer" : 0,
            "byteLength" : 852,
            "byteOffset" : 3912
        },
        {
            "buffer" : 0,
            "byteLength" : 3456,
            "byteOffset" : 4764
        },
        {
            "buffer" : 0,
            "byteLength" : 3456,
            "byteOffset" : 8220
        },
        {
            "buffer" : 0,
            "byteLength" : 2304,
            "byteOffset" : 11676
        },
        {
            "buffer" : 0,
            "byteLength" : 696,
            "byteOffset" : 13980
        },
        {
            "buffer" : 0,
            "byteLength" : 2518,
            "byteOffset" : 14676
        },
        {
            "buffer" : 0,
            "byteLength" : 1524,
            "byteOffset" : 17196
        },
        {
            "buffer" : 0,
            "byteLength" : 1524,
            "byteOffset" : 18720
        },
        {
            "buffer" : 0,
            "byteLength" : 552,
            "byteOffset" : 20244
        },
        {
            "buffer" : 0,
            "byteLength" : 1440,
            "byteOffset" : 20796
        },
        {
            "buffer" : 0,
            "byteLength" : 1440,
            "byteOffset" : 22236
        },
        {
            "buffer" : 0,
            "byteLength" : 552,
            "byteOffset" : 23676
        },
        {
            "buffer" : 0,
            "byteLength" : 96,
            "byteOffset" : 24228
        },
        {
            "buffer" : 0,
            "byteLength" : 96,
            "byteOffset" : 24324
        },
        {
            "buffer" : 0,
            "byteLength" : 64,
            "byteOffset" : 24420
        },
        {
            "buffer" : 0,
            "byteLength" : 18,
            "byteOffset" : 24484
        },
        {
            "buffer" : 0,
            "byteLength" : 6301,
            "byteOffset" : 24504
        },
        {
            "buffer" : 0,
            "byteLength" : 96,
            "byteOffset" : 30808
        },
        {
            "buffer" : 0,
            "byteLength" : 96,
            "byteOffset" : 30904
        },
        {
            "buffer" : 0,
            "byteLength" : 64,
            "byteOffset" : 31000
        }
    ],
    "buffers" : [
        {
            "byteLength" : 31064,
            "uri" : "data:application/octet-stream;base64,"
        }
    ]
}
